<svg xmlns="http://www.w3.org/2000/svg" viewBox="0 0 379.97 377.97"><defs><style>.cls-1{fill:#24d2fd;}.cls-1,.cls-2{stroke:#24d2fd;stroke-miterlimit:10;stroke-width:4.97px;}.cls-2{fill:none;}</style></defs><g id="Layer_2" data-name="Layer 2"><g id="Concept_2" data-name="Concept 2"><g id="Head_Tilt" data-name="Head Tilt"><path class="cls-1" d="M377.49,189c0,103-83.95,186.5-187.5,186.5S2.49,292,2.49,189a184.93,184.93,0,0,1,14.07-71A186,186,0,0,0,2.78,188.49c0,103,83.5,186.5,186.5,186.5a185.85,185.85,0,0,0,130.36-53.13l-18.15-18.37c25.23-24.66,43-74.94,43-113,0-38.38-17.4-89.31-43-114l19.67-19.87a186.91,186.91,0,0,0-54.86-38C331.82,47.66,377.49,113,377.49,189Z"/><path class="cls-2" d="M301.49,303.49l18.15,18.37A185.85,185.85,0,0,1,189.28,375c-103,0-186.5-83.5-186.5-186.5A186,186,0,0,1,16.56,118a.3.3,0,0,1,0-.1A188.21,188.21,0,0,1,265.07,18l1.23.55a186.91,186.91,0,0,1,54.86,38L301.49,76.49c25.6,24.69,43,75.62,43,114C344.49,228.55,326.72,278.83,301.49,303.49Z"/></g></g></g></svg>