<svg xmlns="http://www.w3.org/2000/svg" viewBox="0 0 733 578"><defs><style>.cls-1{fill:#353739;}</style></defs><g id="Layer_2" data-name="Layer 2"><g id="Video_Viewer" data-name="Video Viewer"><path class="cls-1" d="M732.8,35.9h0C731.81,29.29,727,27,713,27H218L202,1,36,0C18,16,18,16,0,35V169l6,22.19V410L0,422v86l6,10v40c0,20,6,20,26,20H717c13,0,13-9.22,13-14V518l3-3V39A21.25,21.25,0,0,0,732.8,35.9ZM725,51l-1,472.08L710,535v30H549l-8-7H255l-6,7H33L19,551,18,191.19V57L34,41l679-1Z"/></g></g></svg>